<svg xmlns="http://www.w3.org/2000/svg" width="60.076" height="66.496" viewBox="0 0 60.076 66.496">
  <g id="bug-fill" transform="translate(-1 -0.479)">
    <path id="Path_201" data-name="Path 201" d="M11.488,2.093a2.146,2.146,0,1,0-4.1,1.244l1.759,5.8A21.391,21.391,0,0,0,3,24.171H45.911A21.391,21.391,0,0,0,39.766,9.139l1.759-5.8a2.146,2.146,0,1,0-4.1-1.244L36.175,6.2a21.472,21.472,0,0,0-23.438,0l-1.244-4.1Z" transform="translate(6.582 0)"/>
    <path id="Path_202" data-name="Path 202" d="M52.493,10.937v4.291H33.183V53.741a21.456,21.456,0,0,0,19.31-21.348h2.146a2.146,2.146,0,0,1,2.146,2.146v2.146a2.146,2.146,0,0,0,4.291,0V34.538A6.437,6.437,0,0,0,54.639,28.1H52.493V23.81H58.93a2.146,2.146,0,1,0,0-4.291H52.493V15.228h2.146a6.437,6.437,0,0,0,6.437-6.437V6.646a2.146,2.146,0,0,0-4.291,0V8.791a2.146,2.146,0,0,1-2.146,2.146Zm-23.6,42.8V15.228H9.582V10.937H7.437A2.146,2.146,0,0,1,5.291,8.791V6.646A2.146,2.146,0,0,0,1,6.646V8.791a6.437,6.437,0,0,0,6.437,6.437H9.582v4.291H3.146a2.146,2.146,0,0,0,0,4.291H9.582V28.1H7.437A6.437,6.437,0,0,0,1,34.538v2.146a2.146,2.146,0,0,0,4.291,0V34.538a2.146,2.146,0,0,1,2.146-2.146H9.582a21.456,21.456,0,0,0,19.31,21.348Z" transform="translate(0 13.234)"/>
  </g>
</svg>
