<svg xmlns="http://www.w3.org/2000/svg" width="28.25" height="37.5" viewBox="0 0 28.25 37.5">
  <g id="Group_9623" data-name="Group 9623" transform="translate(-177.75 -341)">
    <path id="geo-alt-fill_1_" data-name="geo-alt-fill (1)" d="M16.063,37.5a75.556,75.556,0,0,0,8.712-10.233c2.738-3.891,5.35-8.846,5.35-13.2A14.062,14.062,0,1,0,2,14.063C2,24.173,16.063,37.5,16.063,37.5Zm0-16.406a7.031,7.031,0,1,1,7.031-7.031A7.031,7.031,0,0,1,16.063,21.094Z" transform="translate(175.75 341)"/>
    <g id="Layer_2" data-name="Layer 2" transform="translate(178 341)">
      <g id="Layer_1" data-name="Layer 1">
        <circle id="Ellipse_74" data-name="Ellipse 74" cx="14" cy="14" r="14"/>
        <g id="Group_9622" data-name="Group 9622" transform="translate(4.56 4.649)">
          <path id="Path_2807" data-name="Path 2807" d="M73.953,69.307a4.434,4.434,0,1,0,4.434,4.434,4.434,4.434,0,0,0-4.434-4.434Zm0,7.791a3.357,3.357,0,1,1,3.357-3.357A3.357,3.357,0,0,1,73.953,77.1Z" transform="translate(-64.486 -64.392)" fill="#fff"/>
          <path id="Path_2808" data-name="Path 2808" d="M42.678,45.544l-4.564-5.022a3.242,3.242,0,0,1,.219-4.58l.16-.145a3.242,3.242,0,0,1,4.58.219l.771.848.575-.588-1.109-1.22a4.171,4.171,0,0,0-5.892-.281h0a4.171,4.171,0,0,0-.281,5.892L42.218,46.4C42.414,46.2,42.426,45.66,42.678,45.544Z" transform="translate(-35.636 -33.69)" fill="#fff"/>
          <path id="Path_2809" data-name="Path 2809" d="M89.045,37.776h0a4.171,4.171,0,0,0-5.9-.195l-5.591,4.971c.329.028,1.155-.1,1.419.059l4.331-4.054a3.242,3.242,0,0,1,4.582.151l.148.158a3.242,3.242,0,0,1-.151,4.582l-.522.488.56.6.925-.866a4.171,4.171,0,0,0,.195-5.9Z" transform="translate(-71.416 -36.074)" fill="#fff"/>
          <path id="Path_2810" data-name="Path 2810" d="M44.06,108.4l-4.153,3.887a3.242,3.242,0,0,1-4.582-.151l-.148-.158a3.242,3.242,0,0,1,.151-4.582l1.018-.952-.56-.6-1.421,1.33a4.171,4.171,0,0,0-.195,5.9h0a4.171,4.171,0,0,0,5.9.195l5.293-4.668A4.4,4.4,0,0,1,44.06,108.4Z" transform="translate(-33.044 -95.889)" fill="#fff"/>
          <path id="Path_2811" data-name="Path 2811" d="M113.354,83.718l-4.759-5.4c-.121.251-.09,1.006-.3,1.2l4.081,4.359a3.242,3.242,0,0,1-.151,4.582l-.158.148a3.242,3.242,0,0,1-4.582-.151l-.669-.715-.559.482-.064.055,1.069,1.142a4.171,4.171,0,0,0,5.9.195h0a4.171,4.171,0,0,0,.195-5.9Z" transform="translate(-96.101 -72.163)" fill="#fff"/>
        </g>
      </g>
    </g>
  </g>
</svg>
