<svg xmlns="http://www.w3.org/2000/svg" width="325.47" height="276.96" viewBox="0 0 325.47 276.96">
  <g id="Group_1294" data-name="Group 1294" transform="translate(-4729.264 1455.46)">
    <g id="Color" transform="translate(4742.449 -1441.939)">
      <g id="Group_1208" data-name="Group 1208" transform="translate(99.582 135.487)">
        <g id="Group_1206" data-name="Group 1206">
          <rect id="Rectangle_434" data-name="Rectangle 434" width="35.365" height="22.515" fill="#5ed45e"/>
        </g>
        <g id="Group_1207" data-name="Group 1207" transform="translate(55.389)">
          <rect id="Rectangle_435" data-name="Rectangle 435" width="35.365" height="22.515" fill="#5ed45e"/>
        </g>
      </g>
      <g id="Group_1209" data-name="Group 1209" transform="translate(261.597 209.44)">
        <rect id="Rectangle_436" data-name="Rectangle 436" width="41.168" height="52.627" rx="13.142" fill="#fcd118"/>
      </g>
      <g id="Group_1210" data-name="Group 1210" transform="translate(0 0)">
        <circle id="Ellipse_70" data-name="Ellipse 70" cx="8.372" cy="8.372" r="8.372" fill="#fcd118"/>
      </g>
    </g>
    <g id="MOBILE" transform="translate(4729.264 -1455.46)">
      <g id="Group_1232" data-name="Group 1232" transform="translate(100.511 35.41)">
        <g id="Group_1218" data-name="Group 1218">
          <g id="Group_1217" data-name="Group 1217">
            <g id="Group_1211" data-name="Group 1211" transform="translate(0.068)">
              <path id="Path_342" data-name="Path 342" d="M5313.077-1072.3h-99.754a7.629,7.629,0,0,1-7.62-7.62V-1280.1a7.629,7.629,0,0,1,7.62-7.62h99.754a7.629,7.629,0,0,1,7.62,7.62v200.178A7.629,7.629,0,0,1,5313.077-1072.3Zm-99.754-212.675a4.881,4.881,0,0,0-4.876,4.876v200.178a4.881,4.881,0,0,0,4.876,4.876h99.754a4.882,4.882,0,0,0,4.876-4.876V-1280.1a4.882,4.882,0,0,0-4.876-4.876Z" transform="translate(-5205.703 1287.721)" fill="#fff"/>
            </g>
            <g id="Group_1214" data-name="Group 1214" transform="translate(0 28.44)">
              <g id="Group_1212" data-name="Group 1212">
                <path id="Path_343" data-name="Path 343" d="M5319.063-1150.256H5206.755a1.372,1.372,0,0,1-1.373-1.372,1.372,1.372,0,0,1,1.373-1.372h112.308a1.372,1.372,0,0,1,1.372,1.372A1.372,1.372,0,0,1,5319.063-1150.256Z" transform="translate(-5205.382 1153)" fill="#fff"/>
              </g>
              <g id="Group_1213" data-name="Group 1213" transform="translate(0 155.795)">
                <path id="Path_344" data-name="Path 344" d="M5317.8-412.256H5206.755a1.372,1.372,0,0,1-1.373-1.372,1.372,1.372,0,0,1,1.373-1.372H5317.8a1.373,1.373,0,0,1,1.373,1.372A1.373,1.373,0,0,1,5317.8-412.256Z" transform="translate(-5205.382 415)" fill="#fff"/>
              </g>
            </g>
            <g id="Group_1215" data-name="Group 1215" transform="translate(46.232 14.296)">
              <path id="Path_345" data-name="Path 345" d="M5445.81-1217.256h-20.055a1.372,1.372,0,0,1-1.372-1.372,1.372,1.372,0,0,1,1.372-1.372h20.055a1.372,1.372,0,0,1,1.372,1.372A1.372,1.372,0,0,1,5445.81-1217.256Z" transform="translate(-5424.383 1220)" fill="#fff"/>
            </g>
            <g id="Group_1216" data-name="Group 1216" transform="translate(51.31 193.49)">
              <path id="Path_346" data-name="Path 346" d="M5454.823-358.393a6.391,6.391,0,0,1-6.384-6.384,6.392,6.392,0,0,1,6.384-6.384,6.392,6.392,0,0,1,6.385,6.384A6.392,6.392,0,0,1,5454.823-358.393Zm0-10.024a3.644,3.644,0,0,0-3.639,3.64,3.643,3.643,0,0,0,3.639,3.64,3.643,3.643,0,0,0,3.64-3.64A3.644,3.644,0,0,0,5454.823-368.417Z" transform="translate(-5448.439 371.161)" fill="#fff"/>
            </g>
          </g>
        </g>
        <g id="Group_1231" data-name="Group 1231" transform="translate(10.555 40.653)">
          <g id="Group_1221" data-name="Group 1221" transform="translate(0.329 71.572)">
            <g id="Group_1219" data-name="Group 1219">
              <path id="Path_347" data-name="Path 347" d="M5293.679-730.849h-35.365a1.372,1.372,0,0,1-1.373-1.372v-22.515a1.372,1.372,0,0,1,1.373-1.372h35.365a1.372,1.372,0,0,1,1.372,1.372v22.515A1.372,1.372,0,0,1,5293.679-730.849Zm-33.993-2.744h32.621v-19.771h-32.621Z" transform="translate(-5256.941 756.109)" fill="#fff"/>
            </g>
            <g id="Group_1220" data-name="Group 1220" transform="translate(55.389)">
              <path id="Path_348" data-name="Path 348" d="M5556.056-730.849H5520.69a1.372,1.372,0,0,1-1.372-1.372v-22.515a1.372,1.372,0,0,1,1.372-1.372h35.366a1.372,1.372,0,0,1,1.372,1.372v22.515A1.372,1.372,0,0,1,5556.056-730.849Zm-33.993-2.744h32.621v-19.771h-32.621Z" transform="translate(-5519.318 756.109)" fill="#fff"/>
            </g>
          </g>
          <g id="Group_1225" data-name="Group 1225" transform="translate(0 107.061)">
            <g id="Group_1222" data-name="Group 1222">
              <path id="Path_349" data-name="Path 349" d="M5347.529-585.256h-90.774a1.372,1.372,0,0,1-1.373-1.372,1.373,1.373,0,0,1,1.373-1.372h90.774a1.372,1.372,0,0,1,1.373,1.372A1.372,1.372,0,0,1,5347.529-585.256Z" transform="translate(-5255.382 588)" fill="#fff"/>
            </g>
            <g id="Group_1223" data-name="Group 1223" transform="translate(0 12.244)">
              <path id="Path_350" data-name="Path 350" d="M5347.529-527.256h-90.774a1.372,1.372,0,0,1-1.373-1.372,1.373,1.373,0,0,1,1.373-1.372h90.774a1.372,1.372,0,0,1,1.373,1.372A1.372,1.372,0,0,1,5347.529-527.256Z" transform="translate(-5255.382 530)" fill="#fff"/>
            </g>
            <g id="Group_1224" data-name="Group 1224" transform="translate(0 24.277)">
              <path id="Path_351" data-name="Path 351" d="M5347.529-470.256h-90.774a1.373,1.373,0,0,1-1.373-1.372,1.372,1.372,0,0,1,1.373-1.372h90.774a1.372,1.372,0,0,1,1.373,1.372A1.372,1.372,0,0,1,5347.529-470.256Z" transform="translate(-5255.382 473)" fill="#fff"/>
            </g>
          </g>
          <g id="Group_1230" data-name="Group 1230" transform="translate(0.276)">
            <g id="Group_1226" data-name="Group 1226" transform="translate(0.053)">
              <path id="Path_352" data-name="Path 352" d="M5349.068-1033.864h-90.754a1.373,1.373,0,0,1-1.373-1.372v-58.54a1.372,1.372,0,0,1,1.373-1.372h90.754a1.372,1.372,0,0,1,1.372,1.372v58.54A1.372,1.372,0,0,1,5349.068-1033.864Zm-89.382-2.744h88.01v-55.8h-88.01Z" transform="translate(-5256.941 1095.148)" fill="#fff"/>
            </g>
            <g id="Group_1227" data-name="Group 1227" transform="translate(0 16.033)">
              <path id="Path_353" data-name="Path 353" d="M5331.992-975.335a1.368,1.368,0,0,1-.971-.4l-40.152-40.151-31.837,31.838a1.373,1.373,0,0,1-1.941,0,1.373,1.373,0,0,1,0-1.941L5289.9-1018.8a1.372,1.372,0,0,1,1.94,0l41.122,41.122a1.372,1.372,0,0,1,0,1.94A1.368,1.368,0,0,1,5331.992-975.335Z" transform="translate(-5256.689 1019.201)" fill="#fff"/>
            </g>
            <g id="Group_1228" data-name="Group 1228" transform="translate(60.94 29.79)">
              <path id="Path_354" data-name="Path 354" d="M5546.736-936.916a1.367,1.367,0,0,1-.97-.4,1.372,1.372,0,0,1,0-1.94l14.375-14.375a1.372,1.372,0,0,1,.971-.4,1.373,1.373,0,0,1,.97.4l14.115,14.115a1.373,1.373,0,0,1,0,1.941,1.373,1.373,0,0,1-1.941,0l-13.145-13.145-13.406,13.4A1.366,1.366,0,0,1,5546.736-936.916Z" transform="translate(-5545.363 954.035)" fill="#fff"/>
            </g>
            <g id="Group_1229" data-name="Group 1229" transform="translate(55.668 9.353)">
              <path id="Path_355" data-name="Path 355" d="M5527.377-1036.864a7,7,0,0,1-6.99-6.99,7,7,0,0,1,6.99-6.99,7,7,0,0,1,6.99,6.99A7,7,0,0,1,5527.377-1036.864Zm0-11.236a4.251,4.251,0,0,0-4.246,4.246,4.251,4.251,0,0,0,4.246,4.246,4.25,4.25,0,0,0,4.246-4.246A4.25,4.25,0,0,0,5527.377-1048.1Z" transform="translate(-5520.388 1050.845)" fill="#fff"/>
            </g>
          </g>
        </g>
      </g>
      <g id="Group_1236" data-name="Group 1236" transform="translate(0 219.645)">
        <g id="Group_1235" data-name="Group 1235" transform="translate(0 0)">
          <g id="Group_1233" data-name="Group 1233" transform="translate(5.069)">
            <path id="Path_356" data-name="Path 356" d="M4769.881-381.788a16.625,16.625,0,0,1-16.605-16.606A16.625,16.625,0,0,1,4769.881-415a16.625,16.625,0,0,1,16.606,16.606A16.625,16.625,0,0,1,4769.881-381.788Zm0-30.468a13.877,13.877,0,0,0-13.861,13.862,13.877,13.877,0,0,0,13.861,13.862,13.877,13.877,0,0,0,13.862-13.862A13.877,13.877,0,0,0,4769.881-412.256Z" transform="translate(-4753.276 415)" fill="#fff"/>
          </g>
          <g id="Group_1234" data-name="Group 1234" transform="translate(0 30.468)">
            <path id="Path_357" data-name="Path 357" d="M4771.242-247.628A1.372,1.372,0,0,1,4769.87-249a18.952,18.952,0,0,0-18.931-18.931A18.952,18.952,0,0,0,4732.008-249a1.372,1.372,0,0,1-1.372,1.372,1.372,1.372,0,0,1-1.373-1.372,21.7,21.7,0,0,1,21.675-21.675A21.7,21.7,0,0,1,4772.614-249,1.372,1.372,0,0,1,4771.242-247.628Z" transform="translate(-4729.264 270.675)" fill="#fff"/>
          </g>
        </g>
      </g>
      <g id="Group_1239" data-name="Group 1239" transform="translate(0.935 2.314)">
        <g id="Group_1237" data-name="Group 1237">
          <path id="Path_358" data-name="Path 358" d="M4754.314-1389.512h-.019a1.374,1.374,0,0,1-.966-.416c-.8-.825-19.639-20.366-19.639-33.948a20.647,20.647,0,0,1,20.623-20.623,20.647,20.647,0,0,1,20.624,20.623c0,14.661-18.863,33.194-19.666,33.976A1.376,1.376,0,0,1,4754.314-1389.512Zm0-52.243a17.9,17.9,0,0,0-17.879,17.879c0,10.829,14.06,26.839,17.9,31.013,3.872-4.014,17.854-19.32,17.854-31.013A17.9,17.9,0,0,0,4754.314-1441.756Z" transform="translate(-4733.691 1444.5)" fill="#fff"/>
        </g>
        <g id="Group_1238" data-name="Group 1238" transform="translate(10.878 9.835)">
          <path id="Path_359" data-name="Path 359" d="M4794.968-1378.422a9.756,9.756,0,0,1-9.745-9.744,9.756,9.756,0,0,1,9.745-9.744,9.755,9.755,0,0,1,9.744,9.744A9.755,9.755,0,0,1,4794.968-1378.422Zm0-16.744a7.008,7.008,0,0,0-7,7,7.008,7.008,0,0,0,7,7,7.008,7.008,0,0,0,7-7A7.008,7.008,0,0,0,4794.968-1395.167Z" transform="translate(-4785.223 1397.911)" fill="#fff"/>
        </g>
      </g>
      <g id="Group_1245" data-name="Group 1245" transform="translate(256.818 5.874)">
        <g id="Group_1240" data-name="Group 1240">
          <path id="Path_360" data-name="Path 360" d="M5984.749-1370.469a1.478,1.478,0,0,1-1.045-.433l-11.093-11.092h-16.965a9.845,9.845,0,0,1-9.834-9.834V-1417.8a9.845,9.845,0,0,1,9.834-9.834h48.984a9.845,9.845,0,0,1,9.833,9.834v25.973a9.845,9.845,0,0,1-9.833,9.834H5993.91l-7.968,10.918a1.478,1.478,0,0,1-1.079.6C5984.825-1370.47,5984.787-1370.469,5984.749-1370.469Zm-29.1-54.21a6.886,6.886,0,0,0-6.879,6.878v25.973a6.887,6.887,0,0,0,6.879,6.878h17.577a1.474,1.474,0,0,1,1.044.433l10.306,10.3,7.392-10.13a1.478,1.478,0,0,1,1.193-.607h11.473a6.886,6.886,0,0,0,6.878-6.878V-1417.8a6.886,6.886,0,0,0-6.878-6.878Z" transform="translate(-5945.813 1427.634)" fill="#fff"/>
        </g>
        <g id="Group_1244" data-name="Group 1244" transform="translate(9.613 16.715)">
          <g id="Group_1241" data-name="Group 1241">
            <path id="Path_361" data-name="Path 361" d="M5997.529-1336.1a6.186,6.186,0,0,1-6.179-6.179,6.186,6.186,0,0,1,6.179-6.18,6.186,6.186,0,0,1,6.18,6.18A6.186,6.186,0,0,1,5997.529-1336.1Zm0-9.4a3.228,3.228,0,0,0-3.224,3.224,3.228,3.228,0,0,0,3.224,3.224,3.227,3.227,0,0,0,3.224-3.224A3.227,3.227,0,0,0,5997.529-1345.5Z" transform="translate(-5991.35 1348.456)" fill="#fff"/>
          </g>
          <g id="Group_1242" data-name="Group 1242" transform="translate(18.533)">
            <path id="Path_362" data-name="Path 362" d="M6085.322-1336.1a6.187,6.187,0,0,1-6.18-6.179,6.187,6.187,0,0,1,6.18-6.18,6.187,6.187,0,0,1,6.18,6.18A6.187,6.187,0,0,1,6085.322-1336.1Zm0-9.4a3.228,3.228,0,0,0-3.224,3.224,3.227,3.227,0,0,0,3.224,3.224,3.227,3.227,0,0,0,3.224-3.224A3.227,3.227,0,0,0,6085.322-1345.5Z" transform="translate(-6079.143 1348.456)" fill="#fff"/>
          </g>
          <g id="Group_1243" data-name="Group 1243" transform="translate(37.067)">
            <path id="Path_363" data-name="Path 363" d="M6173.115-1336.1a6.187,6.187,0,0,1-6.18-6.179,6.187,6.187,0,0,1,6.18-6.18,6.186,6.186,0,0,1,6.179,6.18A6.186,6.186,0,0,1,6173.115-1336.1Zm0-9.4a3.228,3.228,0,0,0-3.225,3.224,3.228,3.228,0,0,0,3.225,3.224,3.227,3.227,0,0,0,3.223-3.224A3.227,3.227,0,0,0,6173.115-1345.5Z" transform="translate(-6166.935 1348.456)" fill="#fff"/>
          </g>
        </g>
      </g>
      <g id="Group_1251" data-name="Group 1251" transform="translate(273.411 221.589)">
        <g id="Group_1246" data-name="Group 1246" transform="translate(0 0)">
          <path id="Path_364" data-name="Path 364" d="M6064.176-350.421h-35.62a4.151,4.151,0,0,1-4.146-4.146v-47.078a4.151,4.151,0,0,1,4.146-4.147h35.62a4.151,4.151,0,0,1,4.146,4.147v47.078A4.151,4.151,0,0,1,6064.176-350.421Zm-35.62-52.627a1.4,1.4,0,0,0-1.4,1.4v47.078a1.4,1.4,0,0,0,1.4,1.4h35.62a1.4,1.4,0,0,0,1.4-1.4v-47.078a1.4,1.4,0,0,0-1.4-1.4Z" transform="translate(-6024.41 405.792)" fill="#1c2335"/>
        </g>
        <g id="Group_1247" data-name="Group 1247" transform="translate(8.438 10.511)">
          <path id="Path_365" data-name="Path 365" d="M6090.242-353.256h-24.487a1.372,1.372,0,0,1-1.372-1.372,1.372,1.372,0,0,1,1.372-1.372h24.487a1.373,1.373,0,0,1,1.373,1.372A1.373,1.373,0,0,1,6090.242-353.256Z" transform="translate(-6064.383 356)" fill="#1c2335"/>
        </g>
        <g id="Group_1248" data-name="Group 1248" transform="translate(8.438 21.066)">
          <path id="Path_366" data-name="Path 366" d="M6090.242-303.256h-24.487a1.372,1.372,0,0,1-1.372-1.372,1.372,1.372,0,0,1,1.372-1.372h24.487a1.373,1.373,0,0,1,1.373,1.372A1.373,1.373,0,0,1,6090.242-303.256Z" transform="translate(-6064.383 306)" fill="#1c2335"/>
        </g>
        <g id="Group_1249" data-name="Group 1249" transform="translate(8.438 31.622)">
          <path id="Path_367" data-name="Path 367" d="M6090.242-253.256h-24.487a1.372,1.372,0,0,1-1.372-1.372,1.372,1.372,0,0,1,1.372-1.372h24.487a1.373,1.373,0,0,1,1.373,1.372A1.373,1.373,0,0,1,6090.242-253.256Z" transform="translate(-6064.383 256)" fill="#1c2335"/>
        </g>
        <g id="Group_1250" data-name="Group 1250" transform="translate(8.438 42.177)">
          <path id="Path_368" data-name="Path 368" d="M6090.242-203.256h-24.487a1.372,1.372,0,0,1-1.372-1.372,1.372,1.372,0,0,1,1.372-1.372h24.487a1.373,1.373,0,0,1,1.373,1.372A1.373,1.373,0,0,1,6090.242-203.256Z" transform="translate(-6064.383 206)" fill="#1c2335"/>
        </g>
      </g>
      <g id="Group_1264" data-name="Group 1264" transform="translate(19.974 61.951)">
        <g id="Group_1257" data-name="Group 1257">
          <g id="Group_1252" data-name="Group 1252" transform="translate(77.686 70.931)">
            <path id="Path_369" data-name="Path 369" d="M5196.1-823.045h-2.745a1.478,1.478,0,0,1-1.478-1.478A1.478,1.478,0,0,1,5193.36-826h2.745a1.478,1.478,0,0,1,1.477,1.478A1.478,1.478,0,0,1,5196.1-823.045Z" transform="translate(-5191.882 826)" fill="#fff"/>
          </g>
          <g id="Group_1253" data-name="Group 1253" transform="translate(10.133 70.931)">
            <path id="Path_370" data-name="Path 370" d="M4933.1-823.045h-5.7a1.478,1.478,0,0,1-1.478-1.478A1.478,1.478,0,0,1,4927.4-826h5.7a1.478,1.478,0,0,1,1.478,1.478A1.478,1.478,0,0,1,4933.1-823.045Zm-13.511,0h-5.7a1.477,1.477,0,0,1-1.478-1.478,1.477,1.477,0,0,1,1.478-1.478h5.7a1.478,1.478,0,0,1,1.478,1.478A1.478,1.478,0,0,1,4919.592-823.045Zm-13.51,0h-5.7a1.477,1.477,0,0,1-1.477-1.478,1.477,1.477,0,0,1,1.477-1.478h5.7a1.478,1.478,0,0,1,1.478,1.478A1.478,1.478,0,0,1,4906.082-823.045Zm-13.511,0h-5.7a1.477,1.477,0,0,1-1.477-1.478,1.477,1.477,0,0,1,1.477-1.478h5.7a1.477,1.477,0,0,1,1.477,1.478A1.477,1.477,0,0,1,4892.571-823.045Zm-13.511,0h-5.7a1.478,1.478,0,0,1-1.478-1.478A1.478,1.478,0,0,1,4873.36-826h5.7a1.478,1.478,0,0,1,1.478,1.478A1.478,1.478,0,0,1,4879.06-823.045Z" transform="translate(-4871.882 826)" fill="#fff"/>
          </g>
          <g id="Group_1254" data-name="Group 1254" transform="translate(0 68.398)">
            <path id="Path_371" data-name="Path 371" d="M4827.893-832.511h-2.533a1.478,1.478,0,0,1-1.478-1.478v-2.533A1.478,1.478,0,0,1,4825.36-838a1.477,1.477,0,0,1,1.477,1.478v1.056h1.056a1.478,1.478,0,0,1,1.478,1.478A1.478,1.478,0,0,1,4827.893-832.511Z" transform="translate(-4823.882 838)" fill="#fff"/>
          </g>
          <g id="Group_1255" data-name="Group 1255" transform="translate(0 10.133)">
            <path id="Path_372" data-name="Path 372" d="M4825.36-1059.746a1.478,1.478,0,0,1-1.478-1.478v-4.855a1.478,1.478,0,0,1,1.478-1.478,1.477,1.477,0,0,1,1.477,1.478v4.855A1.477,1.477,0,0,1,4825.36-1059.746Zm0-11.611a1.478,1.478,0,0,1-1.478-1.478v-4.855a1.478,1.478,0,0,1,1.478-1.478,1.477,1.477,0,0,1,1.477,1.478v4.855A1.477,1.477,0,0,1,4825.36-1071.357Zm0-11.611a1.478,1.478,0,0,1-1.478-1.478v-4.855a1.478,1.478,0,0,1,1.478-1.478,1.477,1.477,0,0,1,1.477,1.478v4.855A1.477,1.477,0,0,1,4825.36-1082.968Zm0-11.611a1.478,1.478,0,0,1-1.478-1.478v-4.855a1.478,1.478,0,0,1,1.478-1.478,1.477,1.477,0,0,1,1.477,1.478v4.855A1.477,1.477,0,0,1,4825.36-1094.578Zm0-11.611a1.478,1.478,0,0,1-1.478-1.478v-4.855a1.478,1.478,0,0,1,1.478-1.478,1.477,1.477,0,0,1,1.477,1.478v4.855A1.477,1.477,0,0,1,4825.36-1106.189Z" transform="translate(-4823.882 1114)" fill="#fff"/>
          </g>
          <g id="Group_1256" data-name="Group 1256">
            <path id="Path_373" data-name="Path 373" d="M4825.36-1156.3a1.478,1.478,0,0,1-1.478-1.478v-2.744a1.478,1.478,0,0,1,1.478-1.478,1.477,1.477,0,0,1,1.477,1.478v2.744A1.477,1.477,0,0,1,4825.36-1156.3Z" transform="translate(-4823.882 1162)" fill="#fff"/>
          </g>
        </g>
        <g id="Group_1263" data-name="Group 1263" transform="translate(0 88.453)">
          <g id="Group_1258" data-name="Group 1258" transform="translate(77.686)">
            <path id="Path_374" data-name="Path 374" d="M5196.1-740.045h-2.745a1.478,1.478,0,0,1-1.478-1.478A1.478,1.478,0,0,1,5193.36-743h2.745a1.478,1.478,0,0,1,1.477,1.478A1.478,1.478,0,0,1,5196.1-740.045Z" transform="translate(-5191.882 743)" fill="#fff"/>
          </g>
          <g id="Group_1259" data-name="Group 1259" transform="translate(10.133)">
            <path id="Path_375" data-name="Path 375" d="M4933.1-740.045h-5.7a1.478,1.478,0,0,1-1.478-1.478A1.478,1.478,0,0,1,4927.4-743h5.7a1.478,1.478,0,0,1,1.478,1.478A1.478,1.478,0,0,1,4933.1-740.045Zm-13.511,0h-5.7a1.477,1.477,0,0,1-1.478-1.478,1.477,1.477,0,0,1,1.478-1.478h5.7a1.478,1.478,0,0,1,1.478,1.478A1.478,1.478,0,0,1,4919.592-740.045Zm-13.51,0h-5.7a1.477,1.477,0,0,1-1.477-1.478,1.477,1.477,0,0,1,1.477-1.478h5.7a1.478,1.478,0,0,1,1.478,1.478A1.478,1.478,0,0,1,4906.082-740.045Zm-13.511,0h-5.7a1.477,1.477,0,0,1-1.477-1.478,1.477,1.477,0,0,1,1.477-1.478h5.7a1.477,1.477,0,0,1,1.477,1.478A1.477,1.477,0,0,1,4892.571-740.045Zm-13.511,0h-5.7a1.478,1.478,0,0,1-1.478-1.478A1.478,1.478,0,0,1,4873.36-743h5.7a1.478,1.478,0,0,1,1.478,1.478A1.478,1.478,0,0,1,4879.06-740.045Z" transform="translate(-4871.882 743)" fill="#fff"/>
          </g>
          <g id="Group_1260" data-name="Group 1260">
            <path id="Path_376" data-name="Path 376" d="M4825.36-737.3a1.478,1.478,0,0,1-1.478-1.478v-2.744A1.478,1.478,0,0,1,4825.36-743h2.533a1.478,1.478,0,0,1,1.478,1.478,1.478,1.478,0,0,1-1.478,1.478h-1.056v1.267A1.477,1.477,0,0,1,4825.36-737.3Z" transform="translate(-4823.882 743)" fill="#fff"/>
          </g>
          <g id="Group_1261" data-name="Group 1261" transform="translate(0 9.922)">
            <path id="Path_377" data-name="Path 377" d="M4825.36-651.246a1.478,1.478,0,0,1-1.478-1.478v-5.066a1.478,1.478,0,0,1,1.478-1.478,1.477,1.477,0,0,1,1.477,1.478v5.066A1.477,1.477,0,0,1,4825.36-651.246Zm0-12.244a1.478,1.478,0,0,1-1.478-1.478v-5.067a1.478,1.478,0,0,1,1.478-1.478,1.477,1.477,0,0,1,1.477,1.478v5.067A1.477,1.477,0,0,1,4825.36-663.49Zm0-12.244a1.478,1.478,0,0,1-1.478-1.478v-5.066a1.478,1.478,0,0,1,1.478-1.478,1.477,1.477,0,0,1,1.477,1.478v5.066A1.477,1.477,0,0,1,4825.36-675.734Zm0-12.244a1.478,1.478,0,0,1-1.478-1.478v-5.067A1.478,1.478,0,0,1,4825.36-696a1.477,1.477,0,0,1,1.477,1.478v5.067A1.477,1.477,0,0,1,4825.36-687.978Z" transform="translate(-4823.882 696)" fill="#fff"/>
          </g>
          <g id="Group_1262" data-name="Group 1262" transform="translate(0 59.531)">
            <path id="Path_378" data-name="Path 378" d="M4825.36-455.511a1.478,1.478,0,0,1-1.478-1.478v-2.533A1.478,1.478,0,0,1,4825.36-461a1.477,1.477,0,0,1,1.477,1.478v2.533A1.477,1.477,0,0,1,4825.36-455.511Z" transform="translate(-4823.882 461)" fill="#fff"/>
          </g>
        </g>
      </g>
      <g id="Group_1277" data-name="Group 1277" transform="translate(213.979 66.806)">
        <g id="Group_1270" data-name="Group 1270">
          <g id="Group_1265" data-name="Group 1265" transform="translate(0 66.076)">
            <path id="Path_379" data-name="Path 379" d="M5746.894-823.045h-2.533a1.478,1.478,0,0,1-1.478-1.478,1.478,1.478,0,0,1,1.478-1.478h2.533a1.478,1.478,0,0,1,1.478,1.478A1.478,1.478,0,0,1,5746.894-823.045Z" transform="translate(-5742.883 826)" fill="#fff"/>
          </g>
          <g id="Group_1266" data-name="Group 1266" transform="translate(10.344 66.076)">
            <path id="Path_380" data-name="Path 380" d="M5852.047-823.045h-5.488a1.477,1.477,0,0,1-1.478-1.478,1.477,1.477,0,0,1,1.478-1.478h5.488a1.477,1.477,0,0,1,1.478,1.478A1.477,1.477,0,0,1,5852.047-823.045Zm-13.3,0h-5.489a1.477,1.477,0,0,1-1.478-1.478,1.477,1.477,0,0,1,1.478-1.478h5.489a1.477,1.477,0,0,1,1.478,1.478A1.477,1.477,0,0,1,5838.748-823.045Zm-13.3,0h-5.488a1.478,1.478,0,0,1-1.479-1.478A1.478,1.478,0,0,1,5819.96-826h5.488a1.478,1.478,0,0,1,1.478,1.478A1.478,1.478,0,0,1,5825.448-823.045Zm-13.3,0h-5.488a1.478,1.478,0,0,1-1.479-1.478A1.478,1.478,0,0,1,5806.66-826h5.488a1.477,1.477,0,0,1,1.478,1.478A1.477,1.477,0,0,1,5812.148-823.045Zm-13.3,0h-5.488a1.477,1.477,0,0,1-1.478-1.478A1.477,1.477,0,0,1,5793.36-826h5.488a1.478,1.478,0,0,1,1.479,1.478A1.478,1.478,0,0,1,5798.849-823.045Z" transform="translate(-5791.883 826)" fill="#fff"/>
          </g>
          <g id="Group_1267" data-name="Group 1267" transform="translate(77.264 63.542)">
            <path id="Path_381" data-name="Path 381" d="M6113.1-832.511h-2.745a1.478,1.478,0,0,1-1.477-1.478,1.478,1.478,0,0,1,1.477-1.478h1.267v-1.056A1.478,1.478,0,0,1,6113.1-838a1.478,1.478,0,0,1,1.478,1.478v2.533A1.478,1.478,0,0,1,6113.1-832.511Z" transform="translate(-6108.883 838)" fill="#fff"/>
          </g>
          <g id="Group_1268" data-name="Group 1268" transform="translate(80.008 10.344)">
            <path id="Path_382" data-name="Path 382" d="M6123.359-1041.657a1.478,1.478,0,0,1-1.478-1.478v-5.489a1.478,1.478,0,0,1,1.478-1.478,1.478,1.478,0,0,1,1.479,1.478v5.489A1.478,1.478,0,0,1,6123.359-1041.657Zm0-13.3a1.478,1.478,0,0,1-1.478-1.478v-5.489a1.478,1.478,0,0,1,1.478-1.478,1.478,1.478,0,0,1,1.479,1.478v5.489A1.478,1.478,0,0,1,6123.359-1054.957Zm0-13.3a1.478,1.478,0,0,1-1.478-1.478v-5.489a1.478,1.478,0,0,1,1.478-1.478,1.478,1.478,0,0,1,1.479,1.478v5.489A1.478,1.478,0,0,1,6123.359-1068.256Zm0-13.3a1.478,1.478,0,0,1-1.478-1.478v-5.489a1.478,1.478,0,0,1,1.478-1.478,1.478,1.478,0,0,1,1.479,1.478v5.489A1.478,1.478,0,0,1,6123.359-1081.556Z" transform="translate(-6121.882 1090)" fill="#fff"/>
          </g>
          <g id="Group_1269" data-name="Group 1269" transform="translate(80.008)">
            <path id="Path_383" data-name="Path 383" d="M6123.359-1133.3a1.478,1.478,0,0,1-1.478-1.478v-2.744a1.478,1.478,0,0,1,1.478-1.478,1.478,1.478,0,0,1,1.479,1.478v2.744A1.478,1.478,0,0,1,6123.359-1133.3Z" transform="translate(-6121.882 1139)" fill="#fff"/>
          </g>
        </g>
        <g id="Group_1276" data-name="Group 1276" transform="translate(0 83.597)">
          <g id="Group_1271" data-name="Group 1271">
            <path id="Path_384" data-name="Path 384" d="M5746.894-740.045h-2.533a1.478,1.478,0,0,1-1.478-1.478,1.478,1.478,0,0,1,1.478-1.478h2.533a1.478,1.478,0,0,1,1.478,1.478A1.478,1.478,0,0,1,5746.894-740.045Z" transform="translate(-5742.883 743)" fill="#fff"/>
          </g>
          <g id="Group_1272" data-name="Group 1272" transform="translate(10.344)">
            <path id="Path_385" data-name="Path 385" d="M5852.047-740.045h-5.488a1.477,1.477,0,0,1-1.478-1.478,1.477,1.477,0,0,1,1.478-1.478h5.488a1.477,1.477,0,0,1,1.478,1.478A1.477,1.477,0,0,1,5852.047-740.045Zm-13.3,0h-5.489a1.477,1.477,0,0,1-1.478-1.478,1.477,1.477,0,0,1,1.478-1.478h5.489a1.477,1.477,0,0,1,1.478,1.478A1.477,1.477,0,0,1,5838.748-740.045Zm-13.3,0h-5.488a1.478,1.478,0,0,1-1.479-1.478A1.478,1.478,0,0,1,5819.96-743h5.488a1.478,1.478,0,0,1,1.478,1.478A1.478,1.478,0,0,1,5825.448-740.045Zm-13.3,0h-5.488a1.478,1.478,0,0,1-1.479-1.478A1.478,1.478,0,0,1,5806.66-743h5.488a1.477,1.477,0,0,1,1.478,1.478A1.477,1.477,0,0,1,5812.148-740.045Zm-13.3,0h-5.488a1.477,1.477,0,0,1-1.478-1.478A1.477,1.477,0,0,1,5793.36-743h5.488a1.478,1.478,0,0,1,1.479,1.478A1.478,1.478,0,0,1,5798.849-740.045Z" transform="translate(-5791.883 743)" fill="#fff"/>
          </g>
          <g id="Group_1273" data-name="Group 1273" transform="translate(77.264)">
            <path id="Path_386" data-name="Path 386" d="M6113.1-737.3a1.478,1.478,0,0,1-1.478-1.478v-1.267h-1.267a1.478,1.478,0,0,1-1.477-1.478A1.478,1.478,0,0,1,6110.36-743h2.745a1.478,1.478,0,0,1,1.477,1.478v2.744A1.478,1.478,0,0,1,6113.1-737.3Z" transform="translate(-6108.883 743)" fill="#fff"/>
          </g>
          <g id="Group_1274" data-name="Group 1274" transform="translate(80.008 10.133)">
            <path id="Path_387" data-name="Path 387" d="M6123.359-648.135a1.478,1.478,0,0,1-1.478-1.478v-5.278a1.478,1.478,0,0,1,1.478-1.478,1.478,1.478,0,0,1,1.479,1.478v5.278A1.478,1.478,0,0,1,6123.359-648.135Zm0-12.877a1.478,1.478,0,0,1-1.478-1.478v-5.278a1.478,1.478,0,0,1,1.478-1.478,1.478,1.478,0,0,1,1.479,1.478v5.278A1.478,1.478,0,0,1,6123.359-661.012Zm0-12.877a1.478,1.478,0,0,1-1.478-1.478v-5.278a1.478,1.478,0,0,1,1.478-1.478,1.478,1.478,0,0,1,1.479,1.478v5.278A1.478,1.478,0,0,1,6123.359-673.89Zm0-12.877a1.478,1.478,0,0,1-1.478-1.478v-5.278a1.478,1.478,0,0,1,1.478-1.478,1.478,1.478,0,0,1,1.479,1.478v5.278A1.478,1.478,0,0,1,6123.359-686.767Z" transform="translate(-6121.882 695)" fill="#fff"/>
          </g>
          <g id="Group_1275" data-name="Group 1275" transform="translate(80.008 61.642)">
            <path id="Path_388" data-name="Path 388" d="M6123.359-445.511a1.478,1.478,0,0,1-1.478-1.478v-2.533a1.478,1.478,0,0,1,1.478-1.478,1.478,1.478,0,0,1,1.479,1.478v2.533A1.478,1.478,0,0,1,6123.359-445.511Z" transform="translate(-6121.882 451)" fill="#fff"/>
          </g>
        </g>
      </g>
      <g id="Group_1280" data-name="Group 1280" transform="translate(65.784 239.7)">
        <g id="Group_1278" data-name="Group 1278" transform="translate(4.644 0)">
          <path id="Path_389" data-name="Path 389" d="M5064.36-307.545a1.478,1.478,0,0,1-1.478-1.478v-9.5A1.478,1.478,0,0,1,5064.36-320a1.478,1.478,0,0,1,1.478,1.478v9.5A1.478,1.478,0,0,1,5064.36-307.545Z" transform="translate(-5062.882 320)" fill="#fff"/>
        </g>
        <g id="Group_1279" data-name="Group 1279" transform="translate(0 4.855)">
          <path id="Path_390" data-name="Path 390" d="M5051.86-294.045h-9.5a1.477,1.477,0,0,1-1.478-1.478A1.477,1.477,0,0,1,5042.36-297h9.5a1.478,1.478,0,0,1,1.478,1.478A1.478,1.478,0,0,1,5051.86-294.045Z" transform="translate(-5040.883 297)" fill="#fff"/>
        </g>
      </g>
      <g id="Group_1283" data-name="Group 1283" transform="translate(246.278 183.969)">
        <g id="Group_1281" data-name="Group 1281" transform="translate(4.644)">
          <path id="Path_391" data-name="Path 391" d="M5919.359-571.545a1.478,1.478,0,0,1-1.478-1.478v-9.5a1.478,1.478,0,0,1,1.478-1.478,1.478,1.478,0,0,1,1.478,1.478v9.5A1.478,1.478,0,0,1,5919.359-571.545Z" transform="translate(-5917.881 584)" fill="#fff"/>
        </g>
        <g id="Group_1282" data-name="Group 1282" transform="translate(0 4.855)">
          <path id="Path_392" data-name="Path 392" d="M5906.86-558.044h-9.5a1.478,1.478,0,0,1-1.478-1.478A1.478,1.478,0,0,1,5897.36-561h9.5a1.478,1.478,0,0,1,1.478,1.478A1.478,1.478,0,0,1,5906.86-558.044Z" transform="translate(-5895.882 561)" fill="#fff"/>
        </g>
      </g>
      <g id="Group_1286" data-name="Group 1286" transform="translate(222.423 14.452)">
        <g id="Group_1284" data-name="Group 1284" transform="translate(4.644)">
          <path id="Path_393" data-name="Path 393" d="M5806.359-1374.545a1.478,1.478,0,0,1-1.478-1.478v-9.5a1.478,1.478,0,0,1,1.478-1.478,1.477,1.477,0,0,1,1.478,1.478v9.5A1.477,1.477,0,0,1,5806.359-1374.545Z" transform="translate(-5804.881 1387)" fill="#fff"/>
        </g>
        <g id="Group_1285" data-name="Group 1285" transform="translate(0 4.855)">
          <path id="Path_394" data-name="Path 394" d="M5793.86-1361.044h-9.5a1.477,1.477,0,0,1-1.478-1.478,1.477,1.477,0,0,1,1.478-1.478h9.5a1.477,1.477,0,0,1,1.477,1.478A1.477,1.477,0,0,1,5793.86-1361.044Z" transform="translate(-5782.882 1364)" fill="#fff"/>
        </g>
      </g>
      <g id="Group_1289" data-name="Group 1289" transform="translate(53.751 55.406)">
        <g id="Group_1287" data-name="Group 1287" transform="translate(4.644)">
          <path id="Path_395" data-name="Path 395" d="M5007.359-1180.545a1.478,1.478,0,0,1-1.478-1.478v-9.5a1.478,1.478,0,0,1,1.478-1.478,1.478,1.478,0,0,1,1.478,1.478v9.5A1.478,1.478,0,0,1,5007.359-1180.545Z" transform="translate(-5005.881 1193)" fill="#fff"/>
        </g>
        <g id="Group_1288" data-name="Group 1288" transform="translate(0 4.855)">
          <path id="Path_396" data-name="Path 396" d="M4994.86-1167.044h-9.5a1.478,1.478,0,0,1-1.478-1.478,1.478,1.478,0,0,1,1.478-1.478h9.5a1.478,1.478,0,0,1,1.478,1.478A1.478,1.478,0,0,1,4994.86-1167.044Z" transform="translate(-4983.882 1170)" fill="#fff"/>
        </g>
      </g>
      <g id="Group_1290" data-name="Group 1290" transform="translate(43.448 178.516)">
        <path id="Path_397" data-name="Path 397" d="M4944.916-588.477a2.112,2.112,0,0,1,2.058-2.164h0a2.114,2.114,0,0,1,2.162,2.06h0a2.112,2.112,0,0,1-2.058,2.162h-.055A2.109,2.109,0,0,1,4944.916-588.477Zm-6.253-1.214a2.113,2.113,0,0,1-.055-2.985h0a2.11,2.11,0,0,1,2.984-.055h0a2.11,2.11,0,0,1,.056,2.985h0a2.109,2.109,0,0,1-1.521.646h0A2.1,2.1,0,0,1,4938.663-589.691Zm13.671-.323a2.112,2.112,0,0,1-.093-2.985h0a2.112,2.112,0,0,1,2.983-.093h0a2.111,2.111,0,0,1,.093,2.985h0a2.106,2.106,0,0,1-1.539.665h0A2.107,2.107,0,0,1,4952.333-590.014Zm-17.256-7.963h0a2.113,2.113,0,0,1,2.086-2.136h0a2.111,2.111,0,0,1,2.137,2.086h0a2.111,2.111,0,0,1-2.085,2.136h-.026A2.113,2.113,0,0,1,4935.078-597.977Zm19.188-.429a2.108,2.108,0,0,1,2.031-2.187h0a2.109,2.109,0,0,1,2.187,2.031h0a2.113,2.113,0,0,1-2.031,2.189h-.078A2.108,2.108,0,0,1,4954.266-598.405Zm-15.793-4.959a2.113,2.113,0,0,1-.017-2.985h0a2.11,2.11,0,0,1,2.985-.019h0a2.111,2.111,0,0,1,.019,2.985h0a2.1,2.1,0,0,1-1.5.629h0A2.1,2.1,0,0,1,4938.473-603.364Zm13.367-.279a2.111,2.111,0,0,1-.129-2.983h0a2.11,2.11,0,0,1,2.981-.129h0a2.108,2.108,0,0,1,.131,2.981h0a2.1,2.1,0,0,1-1.556.686h0A2.1,2.1,0,0,1,4951.84-603.643Zm-7.165-4.076a2.111,2.111,0,0,1,2.111-2.111h0a2.11,2.11,0,0,1,2.109,2.111h0a2.109,2.109,0,0,1-2.109,2.111h0A2.109,2.109,0,0,1,4944.675-607.719Z" transform="translate(-4935.078 609.83)" fill="#fff"/>
      </g>
      <g id="Group_1291" data-name="Group 1291" transform="translate(246.589 80.699)">
        <path id="Path_398" data-name="Path 398" d="M5907.193-1051.837a2.113,2.113,0,0,1,2.058-2.164h0a2.113,2.113,0,0,1,2.163,2.06h0a2.113,2.113,0,0,1-2.059,2.162h-.052A2.114,2.114,0,0,1,5907.193-1051.837Zm-6.251-1.214h0a2.112,2.112,0,0,1-.055-2.985h0a2.109,2.109,0,0,1,2.985-.055h0a2.114,2.114,0,0,1,.055,2.985h0a2.11,2.11,0,0,1-1.52.646h0A2.1,2.1,0,0,1,5900.942-1053.051Zm13.671-.323a2.112,2.112,0,0,1-.092-2.985h0a2.111,2.111,0,0,1,2.983-.093h0a2.112,2.112,0,0,1,.092,2.985h0a2.108,2.108,0,0,1-1.539.665h0A2.107,2.107,0,0,1,5914.613-1053.374Zm-17.255-7.963a2.111,2.111,0,0,1,2.086-2.136h0a2.111,2.111,0,0,1,2.137,2.084h0a2.113,2.113,0,0,1-2.086,2.138h-.025A2.112,2.112,0,0,1,5897.358-1061.336Zm19.185-.428h0a2.112,2.112,0,0,1,2.033-2.187h0a2.108,2.108,0,0,1,2.187,2.031h0a2.109,2.109,0,0,1-2.031,2.187h0c-.027,0-.052,0-.08,0h0A2.112,2.112,0,0,1,5916.543-1061.765Zm-15.791-4.959a2.108,2.108,0,0,1-.017-2.985h0a2.11,2.11,0,0,1,2.984-.019h0a2.112,2.112,0,0,1,.02,2.985h0a2.111,2.111,0,0,1-1.5.629h0A2.1,2.1,0,0,1,5900.752-1066.724Zm13.367-.279a2.112,2.112,0,0,1-.131-2.983h0a2.112,2.112,0,0,1,2.983-.131h0a2.113,2.113,0,0,1,.131,2.983h0a2.1,2.1,0,0,1-1.559.686h0A2.1,2.1,0,0,1,5914.12-1067Zm-7.167-4.076a2.112,2.112,0,0,1,2.111-2.111h0a2.111,2.111,0,0,1,2.111,2.111h0a2.111,2.111,0,0,1-2.111,2.111h0A2.112,2.112,0,0,1,5906.953-1071.079Z" transform="translate(-5897.358 1073.19)" fill="#fff"/>
      </g>
      <g id="Group_1292" data-name="Group 1292" transform="translate(43.448 94.999)">
        <path id="Path_399" data-name="Path 399" d="M4944.916-984.1a2.108,2.108,0,0,1,2.059-2.162h0a2.11,2.11,0,0,1,2.161,2.058h0a2.11,2.11,0,0,1-2.058,2.162h0l-.054,0h0A2.11,2.11,0,0,1,4944.916-984.1Zm-6.253-1.214v0a2.11,2.11,0,0,1-.055-2.985h0a2.111,2.111,0,0,1,2.985-.057h0a2.113,2.113,0,0,1,.055,2.985h0a2.1,2.1,0,0,1-1.521.646h0A2.1,2.1,0,0,1,4938.663-985.313Zm13.671-.323a2.111,2.111,0,0,1-.093-2.983h0a2.11,2.11,0,0,1,2.983-.093h0a2.108,2.108,0,0,1,.093,2.983h0a2.1,2.1,0,0,1-1.539.665h0A2.1,2.1,0,0,1,4952.334-985.636Zm-17.255-7.961a2.113,2.113,0,0,1,2.085-2.138h0a2.114,2.114,0,0,1,2.137,2.086h0a2.11,2.11,0,0,1-2.086,2.136h-.025A2.108,2.108,0,0,1,4935.079-993.6Zm19.187-.428a2.112,2.112,0,0,1,2.031-2.189h0a2.111,2.111,0,0,1,2.187,2.033h0a2.108,2.108,0,0,1-2.03,2.187h0l-.081,0h0A2.111,2.111,0,0,1,4954.266-994.025Zm-15.791-4.959a2.112,2.112,0,0,1-.019-2.985h0a2.111,2.111,0,0,1,2.985-.019h0a2.11,2.11,0,0,1,.019,2.985h0a2.106,2.106,0,0,1-1.5.627h0A2.1,2.1,0,0,1,4938.475-998.984Zm13.365-.279h0a2.111,2.111,0,0,1-.129-2.983h0a2.109,2.109,0,0,1,2.981-.131h0a2.11,2.11,0,0,1,.131,2.983h0a2.108,2.108,0,0,1-1.559.684h0A2.1,2.1,0,0,1,4951.84-999.263Zm-7.167-4.076a2.111,2.111,0,0,1,2.113-2.111h0a2.109,2.109,0,0,1,2.109,2.111h0a2.111,2.111,0,0,1-2.109,2.111h0A2.113,2.113,0,0,1,4944.673-1003.339Z" transform="translate(-4935.079 1005.45)" fill="#fff"/>
      </g>
      <g id="Group_1293" data-name="Group 1293" transform="translate(74.124 0)">
        <path id="Path_400" data-name="Path 400" d="M5090.224-1434.107a2.109,2.109,0,0,1,2.058-2.162h0a2.113,2.113,0,0,1,2.164,2.058h0a2.114,2.114,0,0,1-2.06,2.162h-.053A2.112,2.112,0,0,1,5090.224-1434.107Zm-6.251-1.214a2.111,2.111,0,0,1-.057-2.985h0a2.111,2.111,0,0,1,2.985-.055h0a2.111,2.111,0,0,1,.057,2.985h0a2.106,2.106,0,0,1-1.522.646h0A2.1,2.1,0,0,1,5083.973-1435.321Zm13.67-.323a2.112,2.112,0,0,1-.094-2.985h0a2.114,2.114,0,0,1,2.985-.093h0a2.114,2.114,0,0,1,.093,2.985h0a2.113,2.113,0,0,1-1.54.665h0A2.1,2.1,0,0,1,5097.644-1435.644Zm-17.255-7.963h0a2.11,2.11,0,0,1,2.083-2.136h0a2.112,2.112,0,0,1,2.139,2.086h0a2.114,2.114,0,0,1-2.086,2.136h-.028A2.11,2.11,0,0,1,5080.389-1443.606Zm19.185-.428a2.11,2.11,0,0,1,2.031-2.187h0a2.113,2.113,0,0,1,2.189,2.031h0a2.115,2.115,0,0,1-2.033,2.189h-.078A2.11,2.11,0,0,1,5099.574-1444.035Zm-15.791-4.959a2.111,2.111,0,0,1-.019-2.985h0a2.111,2.111,0,0,1,2.985-.019h0a2.113,2.113,0,0,1,.019,2.987h0a2.1,2.1,0,0,1-1.5.627h0A2.1,2.1,0,0,1,5083.783-1448.994Zm13.367-.279a2.11,2.11,0,0,1-.131-2.983h0a2.112,2.112,0,0,1,2.983-.129h0a2.111,2.111,0,0,1,.129,2.983h0a2.1,2.1,0,0,1-1.556.684h0A2.1,2.1,0,0,1,5097.15-1449.273Zm-7.167-4.076a2.112,2.112,0,0,1,2.111-2.111h0a2.112,2.112,0,0,1,2.111,2.111h0a2.111,2.111,0,0,1-2.111,2.111h0A2.11,2.11,0,0,1,5089.983-1453.349Z" transform="translate(-5080.389 1455.46)" fill="#fff"/>
      </g>
    </g>
  </g>
</svg>
