<svg xmlns="http://www.w3.org/2000/svg" width="22.65" height="24.02" viewBox="0 0 22.65 24.02">
  <g id="noun_Home_1859323" transform="translate(0.25 0.25)">
    <path id="Path_7" data-name="Path 7" d="M15.075,4.395a1.367,1.367,0,0,1,1.035.465L24.416,14.2a1.383,1.383,0,0,1,.35.92v7.254A2.772,2.772,0,0,1,22,25.146H17.844V20.993a2.769,2.769,0,1,0-5.537,0v4.153H8.153a2.772,2.772,0,0,1-2.769-2.769V15.124a1.383,1.383,0,0,1,.35-.92L14.04,4.859a1.367,1.367,0,0,1,1.035-.465m0-1.384a2.757,2.757,0,0,0-2.069.929L4.7,13.284A2.769,2.769,0,0,0,4,15.124v7.254A4.153,4.153,0,0,0,8.153,26.53h4.153a1.384,1.384,0,0,0,1.384-1.384V20.993a1.384,1.384,0,0,1,2.769,0v4.153a1.384,1.384,0,0,0,1.384,1.384H22a4.153,4.153,0,0,0,4.153-4.153V15.124a2.769,2.769,0,0,0-.7-1.839L17.144,3.94a2.757,2.757,0,0,0-2.069-.929Z" transform="translate(-4 -3.01)" stroke="#000" stroke-width="0.5"/>
  </g>
</svg>
