<svg xmlns="http://www.w3.org/2000/svg" width="135.912" height="134.62" viewBox="0 0 135.912 134.62">
  <g id="Group_9622" data-name="Group 9622" transform="translate(-33.044 -33.69)">
    <path id="Path_2807" data-name="Path 2807" d="M101.651,69.307a32.132,32.132,0,1,0,32.133,32.133,32.132,32.132,0,0,0-32.133-32.133Zm0,56.461A24.329,24.329,0,1,1,125.98,101.44a24.329,24.329,0,0,1-24.329,24.329Z" fill="#fff"/>
    <path id="Path_2808" data-name="Path 2808" d="M84.075,119.591,51,83.2a23.493,23.493,0,0,1,1.584-33.187l1.158-1.053a23.493,23.493,0,0,1,33.187,1.584l5.589,6.149,4.165-4.264-8.037-8.842a30.226,30.226,0,0,0-42.7-2.038h0a30.226,30.226,0,0,0-2.038,42.7L80.743,125.8C82.162,124.374,82.248,120.429,84.075,119.591Z" fill="#fff"/>
    <path id="Path_2809" data-name="Path 2809" d="M160.8,46.026h0a30.226,30.226,0,0,0-42.723-1.411L77.558,80.638c2.384.2,8.367-.716,10.284.425l31.382-29.375a23.493,23.493,0,0,1,33.206,1.1l1.07,1.143a23.493,23.493,0,0,1-1.1,33.206l-3.779,3.538,4.056,4.354,6.706-6.277A30.226,30.226,0,0,0,160.8,46.026Z" fill="#fff"/>
    <path id="Path_2810" data-name="Path 2810" d="M112.87,124.378l-30.095,28.17a23.493,23.493,0,0,1-33.206-1.1L48.5,150.308A23.493,23.493,0,0,1,49.6,117.1l7.374-6.9-4.056-4.354-10.3,9.641A30.226,30.226,0,0,0,41.2,158.21h0a30.226,30.226,0,0,0,42.723,1.411L122.283,125.8C119.97,125.5,114.718,125.562,112.87,124.378Z" fill="#fff"/>
    <path id="Path_2811" data-name="Path 2811" d="M158.073,117.428,123.586,78.322c-.879,1.819-.654,7.29-2.158,8.665L151,118.578a23.493,23.493,0,0,1-1.1,33.206l-1.143,1.07a23.493,23.493,0,0,1-33.206-1.1l-4.847-5.178-4.051,3.491-.461.4,7.744,8.273a30.226,30.226,0,0,0,42.723,1.411h0a30.226,30.226,0,0,0,1.412-42.723Z" fill="#fff"/>
  </g>
</svg>
