<svg id="plus-square_1_" data-name="plus-square (1)" xmlns="http://www.w3.org/2000/svg" width="28" height="28" viewBox="0 0 28 28">
  <path id="Path_401" data-name="Path 401" d="M24.5,1.75A1.75,1.75,0,0,1,26.25,3.5v21a1.75,1.75,0,0,1-1.75,1.75H3.5A1.75,1.75,0,0,1,1.75,24.5V3.5A1.75,1.75,0,0,1,3.5,1.75ZM3.5,0A3.5,3.5,0,0,0,0,3.5v21A3.5,3.5,0,0,0,3.5,28h21A3.5,3.5,0,0,0,28,24.5V3.5A3.5,3.5,0,0,0,24.5,0Z"/>
  <path id="Path_402" data-name="Path 402" d="M11,4a.875.875,0,0,1,.875.875v5.25h5.25a.875.875,0,0,1,0,1.75h-5.25v5.25a.875.875,0,0,1-1.75,0v-5.25H4.875a.875.875,0,0,1,0-1.75h5.25V4.875A.875.875,0,0,1,11,4Z" transform="translate(3 3)"/>
</svg>
